<?xml version="1.0" standalone="no"?>
<!DOCTYPE svg PUBLIC "-//W3C//DTD SVG 20010904//EN"
 "http://www.w3.org/TR/2001/REC-SVG-20010904/DTD/svg10.dtd">
<svg version="1.0" xmlns="http://www.w3.org/2000/svg"
 width="2048.000000pt" height="2048.000000pt" viewBox="0 0 2048.000000 2048.000000"
 preserveAspectRatio="xMidYMid meet">
<metadata>
Created by potrace 1.14, written by Peter Selinger 2001-2017
</metadata>
<g transform="translate(0.000000,2048.000000) scale(0.100000,-0.100000)"
fill="#000000" stroke="none">
<path d="M1860 20436 c0 -8 20 -38 45 -67 25 -29 45 -58 45 -64 0 -6 16 -25
35 -42 19 -17 35 -38 35 -46 0 -9 10 -24 23 -34 13 -10 32 -31 43 -48 10 -16
38 -53 60 -82 23 -28 45 -61 49 -72 3 -12 15 -26 26 -31 10 -6 28 -29 39 -51
12 -22 28 -43 36 -46 8 -3 23 -22 33 -42 11 -20 29 -45 41 -56 12 -11 34 -40
48 -65 15 -25 39 -56 54 -68 16 -13 28 -31 28 -39 0 -8 16 -29 35 -46 19 -17
35 -36 35 -43 0 -6 14 -27 32 -45 17 -19 46 -58 65 -86 18 -29 38 -53 43 -53
6 0 18 -17 28 -37 9 -21 27 -46 40 -56 12 -10 30 -33 39 -50 9 -18 28 -44 42
-58 24 -24 50 -58 108 -142 12 -18 33 -45 48 -62 14 -16 36 -44 48 -62 55 -79
85 -118 125 -164 23 -27 42 -56 42 -64 0 -7 13 -23 30 -35 16 -12 33 -32 36
-46 3 -13 16 -32 28 -42 13 -9 36 -37 52 -62 16 -25 41 -58 57 -75 15 -16 30
-40 33 -52 3 -12 17 -29 30 -38 13 -8 33 -33 44 -55 11 -22 25 -40 30 -40 5 0
25 -24 43 -52 19 -29 42 -59 51 -67 10 -8 27 -32 38 -54 11 -22 33 -51 49 -64
16 -14 29 -31 29 -39 0 -8 14 -26 31 -41 17 -16 40 -44 50 -63 10 -19 34 -52
51 -73 l33 -39 3 -366 c2 -202 0 -382 -3 -399 -4 -22 -25 -51 -63 -88 -31 -30
-76 -73 -99 -95 -22 -22 -46 -40 -52 -40 -6 0 -17 -13 -25 -29 -8 -15 -28 -33
-43 -40 -15 -6 -36 -25 -45 -41 -9 -17 -29 -35 -43 -40 -14 -5 -30 -21 -35
-34 -5 -14 -23 -32 -40 -41 -17 -9 -36 -27 -42 -41 -7 -14 -24 -32 -39 -40
-16 -8 -34 -26 -41 -41 -7 -15 -24 -33 -36 -39 -13 -7 -32 -25 -42 -42 -11
-17 -28 -36 -39 -42 -12 -6 -28 -24 -36 -40 -8 -16 -29 -37 -45 -45 -17 -9
-30 -22 -30 -30 0 -8 -18 -29 -40 -46 -22 -18 -40 -38 -40 -45 0 -7 -15 -25
-32 -40 -18 -15 -40 -39 -49 -53 -9 -14 -31 -42 -50 -62 -19 -20 -54 -62 -79
-94 -25 -32 -62 -75 -82 -95 -21 -20 -38 -42 -38 -48 0 -6 -17 -28 -37 -50
-21 -21 -46 -51 -55 -67 -23 -39 -80 -113 -111 -145 -13 -14 -31 -39 -40 -57
-9 -17 -26 -38 -36 -46 -11 -7 -24 -24 -29 -38 -5 -13 -30 -52 -56 -85 -25
-34 -46 -66 -46 -71 0 -5 -12 -20 -26 -34 -14 -13 -32 -39 -40 -58 -8 -18 -29
-50 -48 -71 -18 -21 -39 -53 -45 -73 -7 -19 -23 -43 -37 -51 -13 -9 -24 -22
-24 -29 0 -20 -41 -90 -66 -114 -13 -12 -24 -31 -24 -42 0 -11 -13 -35 -29
-53 -16 -18 -38 -56 -51 -85 -12 -28 -33 -61 -46 -74 -13 -12 -24 -29 -24 -36
0 -18 -38 -93 -59 -118 -10 -11 -26 -42 -35 -68 -10 -26 -29 -61 -43 -77 -13
-16 -29 -47 -35 -67 -6 -21 -23 -56 -39 -78 -16 -22 -35 -63 -44 -90 -8 -28
-24 -61 -36 -74 -12 -12 -30 -52 -41 -87 -10 -35 -30 -77 -43 -93 -14 -16 -25
-33 -25 -38 0 -28 -34 -117 -51 -134 -11 -11 -29 -52 -39 -90 -10 -39 -29 -87
-43 -107 -14 -20 -33 -69 -42 -108 -9 -39 -25 -81 -36 -92 -11 -12 -27 -54
-35 -94 -9 -40 -28 -93 -41 -118 -14 -25 -34 -83 -45 -130 -10 -47 -28 -101
-40 -120 -11 -19 -29 -77 -39 -129 -10 -51 -28 -110 -40 -130 -13 -21 -29 -80
-40 -145 -10 -60 -28 -128 -39 -150 -12 -24 -29 -95 -41 -171 -11 -71 -29
-148 -40 -170 -13 -26 -27 -96 -40 -205 -12 -91 -27 -183 -36 -205 -26 -72
-32 -108 -48 -314 -10 -119 -25 -236 -37 -280 -31 -120 -41 -381 -41 -1026 0
-648 10 -906 42 -1027 12 -45 27 -161 36 -280 17 -207 22 -243 48 -313 8 -22
24 -114 36 -205 14 -109 28 -179 41 -205 11 -22 28 -98 39 -170 11 -75 28
-147 40 -170 11 -22 29 -90 40 -151 11 -62 29 -126 41 -146 11 -20 29 -78 39
-129 10 -52 28 -110 40 -130 12 -20 30 -74 40 -120 10 -46 30 -104 44 -129 14
-25 30 -72 37 -105 6 -33 22 -76 35 -97 13 -20 33 -69 43 -110 10 -40 30 -89
43 -109 14 -20 31 -63 39 -95 7 -32 24 -72 37 -87 19 -24 53 -112 53 -140 0
-5 11 -22 25 -39 14 -16 32 -55 41 -85 9 -31 29 -74 44 -95 15 -20 32 -57 38
-81 6 -24 24 -60 40 -80 16 -20 34 -56 41 -80 6 -25 18 -50 27 -57 19 -16 54
-83 54 -104 0 -8 11 -27 24 -43 29 -34 66 -107 66 -128 0 -9 7 -18 16 -22 9
-3 32 -39 51 -80 18 -40 38 -73 43 -73 6 0 21 -25 34 -55 14 -30 36 -67 51
-82 14 -15 31 -45 37 -66 6 -21 20 -43 31 -48 10 -6 30 -34 43 -63 13 -29 34
-62 45 -72 12 -10 30 -38 40 -62 10 -23 26 -45 34 -48 9 -4 25 -25 37 -48 11
-22 38 -63 59 -90 22 -27 39 -55 39 -62 0 -7 11 -21 25 -30 13 -9 27 -25 30
-35 4 -11 24 -40 46 -65 21 -25 39 -49 39 -53 0 -4 23 -34 50 -65 28 -31 50
-64 50 -71 0 -8 11 -22 26 -31 14 -9 32 -31 41 -47 8 -17 29 -45 47 -63 17
-17 51 -57 76 -89 25 -31 66 -81 93 -111 26 -30 47 -58 47 -62 0 -5 11 -15 25
-22 13 -7 31 -28 40 -46 8 -18 25 -36 36 -39 11 -4 27 -22 36 -41 9 -18 25
-36 35 -40 10 -3 30 -23 43 -44 13 -21 32 -41 42 -44 10 -3 27 -19 36 -36 10
-16 31 -38 47 -50 16 -11 32 -29 35 -40 3 -10 21 -28 40 -39 73 -43 71 -198
-3 -265 -11 -10 -24 -31 -27 -47 -4 -17 -22 -49 -40 -73 -18 -24 -42 -64 -53
-90 -12 -25 -28 -49 -36 -52 -8 -3 -23 -28 -33 -56 -10 -28 -30 -64 -45 -78
-15 -15 -30 -40 -34 -55 -4 -15 -22 -47 -41 -72 -19 -25 -40 -60 -45 -77 -6
-17 -21 -42 -34 -56 -13 -14 -34 -51 -48 -82 -14 -31 -31 -60 -39 -65 -8 -4
-25 -33 -39 -63 -14 -30 -37 -68 -52 -83 -14 -15 -26 -37 -26 -47 0 -11 -13
-34 -29 -52 -15 -18 -38 -55 -50 -83 -12 -27 -33 -61 -46 -75 -13 -14 -27 -38
-31 -53 -3 -16 -22 -49 -40 -73 -19 -24 -41 -61 -49 -81 -9 -21 -27 -49 -39
-63 -13 -14 -30 -43 -37 -64 -8 -21 -26 -51 -41 -65 -16 -14 -28 -32 -28 -39
0 -19 -36 -86 -56 -103 -9 -7 -25 -34 -36 -59 -11 -25 -28 -54 -38 -65 -11
-11 -30 -46 -44 -77 -14 -31 -34 -62 -46 -68 -11 -6 -20 -17 -20 -26 0 -23
-37 -90 -65 -118 -14 -14 -25 -34 -25 -44 0 -11 -16 -40 -35 -65 -19 -24 -42
-64 -51 -86 -9 -23 -24 -47 -34 -54 -9 -6 -28 -37 -40 -67 -13 -30 -34 -67
-47 -81 -13 -14 -20 -28 -16 -32 3 -4 3254 -7 7222 -7 6541 0 7219 1 7239 16
12 8 34 37 47 64 14 27 34 54 45 60 11 6 26 26 34 45 8 18 26 41 40 50 14 10
26 24 26 31 0 8 17 33 38 57 21 23 49 59 61 80 12 20 31 43 40 50 10 6 26 27
35 44 9 18 28 40 41 49 14 9 25 23 25 31 0 8 16 31 36 51 19 19 42 48 49 63 8
15 32 48 54 73 22 25 42 54 46 65 3 10 17 26 30 35 14 9 31 32 39 50 8 19 23
37 34 40 11 4 26 21 33 38 7 17 30 51 51 75 21 25 45 58 53 73 8 16 24 34 35
40 11 6 26 26 34 45 8 18 26 41 40 50 14 10 26 24 26 31 0 8 17 33 38 57 21
23 49 59 61 80 12 20 31 43 40 50 10 6 26 27 35 44 9 18 28 40 41 49 14 9 25
23 25 31 0 8 15 30 34 49 19 19 44 51 56 72 12 20 36 54 54 75 17 20 47 56 66
80 20 23 42 54 49 69 8 15 22 30 32 33 9 3 23 20 30 37 7 17 30 51 51 75 21
25 45 58 53 73 8 16 24 34 35 40 11 6 26 25 34 43 7 18 25 41 40 50 14 10 26
24 26 32 0 9 17 34 39 58 21 23 50 61 65 85 14 23 31 42 36 42 5 0 19 18 30
40 11 22 31 47 45 56 14 9 25 23 25 31 0 8 15 30 34 49 19 19 44 51 56 72 12
20 36 54 54 75 17 20 47 56 66 80 20 23 42 54 49 69 8 15 22 30 32 33 9 3 23
20 30 37 7 17 30 51 51 75 21 25 45 58 53 73 8 16 24 34 35 40 11 6 26 25 34
43 7 18 25 41 40 50 14 10 26 24 26 32 0 9 17 34 39 58 21 23 50 61 65 85 14
23 31 42 36 42 5 0 19 18 30 40 11 22 31 47 45 56 14 9 25 23 25 31 0 8 16 31
35 50 20 20 41 45 47 57 12 24 75 107 127 167 23 27 31 43 24 50 -6 6 -225 11
-611 12 l-600 2 -26 24 c-40 37 -28 136 19 167 13 9 29 30 35 48 6 18 22 44
35 56 14 13 36 47 49 76 13 29 33 57 44 63 11 6 23 23 27 38 6 25 40 82 57 93
4 3 19 31 32 63 14 31 30 57 36 57 5 0 25 33 43 73 19 41 42 77 51 80 9 4 16
13 16 22 0 21 37 94 66 128 13 16 24 35 24 43 0 21 35 88 54 104 9 7 21 32 27
57 7 24 25 60 41 80 16 20 34 56 40 80 6 24 23 61 38 81 15 21 35 64 44 95 9
30 27 69 41 85 14 17 25 34 25 39 0 28 34 116 53 140 13 15 30 55 37 87 8 32
25 75 39 95 13 20 33 69 43 109 10 41 30 90 43 110 13 21 29 64 35 97 7 33 23
80 37 105 14 25 34 83 44 129 10 46 28 100 40 120 12 20 30 78 40 130 10 51
28 109 39 129 12 20 30 84 41 146 11 61 29 129 40 151 11 22 29 97 40 170 11
72 29 149 40 171 13 27 27 98 40 203 10 89 26 180 35 204 27 73 32 107 49 316
9 116 25 236 36 280 32 122 43 385 42 1031 0 645 -10 900 -42 1021 -11 44 -26
161 -36 280 -16 206 -22 242 -48 314 -9 22 -24 114 -36 205 -13 109 -27 179
-40 205 -11 22 -27 93 -37 160 -10 76 -25 139 -41 172 -13 28 -32 100 -42 160
-11 65 -27 123 -40 144 -12 20 -30 79 -40 130 -10 52 -28 110 -39 129 -12 19
-30 73 -40 120 -11 47 -31 105 -45 130 -13 25 -32 78 -41 118 -8 40 -24 82
-35 94 -11 11 -27 53 -36 92 -9 39 -28 88 -42 108 -14 20 -33 68 -43 107 -10
38 -28 79 -39 90 -17 17 -51 106 -51 134 0 5 -11 22 -25 38 -13 16 -33 58 -43
93 -11 35 -29 75 -41 87 -12 13 -28 46 -36 74 -9 27 -28 68 -44 90 -16 22 -33
57 -39 78 -6 20 -22 51 -35 67 -14 16 -33 51 -43 77 -9 26 -25 57 -35 68 -21
25 -59 100 -59 118 0 7 -11 24 -24 36 -13 13 -34 46 -46 74 -13 29 -35 67 -51
85 -16 18 -29 42 -29 53 0 11 -11 30 -24 42 -25 24 -66 94 -66 114 0 7 -11 20
-24 29 -14 8 -30 32 -37 51 -6 20 -27 52 -45 73 -19 21 -40 53 -48 71 -8 19
-26 45 -40 58 -14 14 -26 29 -26 34 0 5 -21 37 -46 71 -26 33 -51 72 -56 85
-5 14 -18 31 -29 39 -10 7 -28 31 -39 53 -11 21 -25 39 -30 39 -5 0 -22 19
-36 43 -15 23 -41 58 -58 77 -17 19 -38 50 -45 67 -7 18 -22 35 -33 39 -10 3
-24 18 -31 32 -6 15 -27 43 -47 63 -19 20 -55 62 -80 94 -25 32 -63 78 -85
102 -22 25 -44 53 -50 63 -5 9 -25 30 -43 45 -17 15 -32 32 -32 39 0 7 -18 27
-40 45 -22 17 -40 38 -40 45 0 8 -16 23 -35 34 -19 12 -37 32 -40 45 -4 14
-17 29 -31 36 -13 6 -33 25 -43 42 -11 17 -30 36 -43 43 -12 6 -29 24 -36 39
-8 16 -25 33 -39 40 -13 6 -31 23 -39 39 -8 15 -28 35 -45 43 -16 9 -34 27
-39 41 -5 13 -21 29 -35 34 -14 5 -34 23 -43 40 -9 16 -29 34 -43 40 -14 6
-33 24 -43 40 -9 17 -22 30 -27 30 -6 0 -31 19 -55 43 -56 54 -110 102 -293
255 -24 20 -60 52 -79 70 -19 18 -48 40 -63 48 -16 8 -36 26 -45 39 -9 14 -22
25 -30 25 -7 0 -39 23 -70 50 -31 28 -61 50 -65 50 -4 0 -29 18 -54 40 -25 22
-50 40 -55 40 -5 0 -25 16 -44 35 -20 19 -41 35 -49 35 -7 0 -25 13 -40 28
-15 16 -47 38 -70 50 -23 12 -56 35 -72 52 -16 16 -36 30 -46 30 -9 0 -27 11
-40 25 -13 15 -46 38 -74 52 -27 14 -65 39 -83 54 -18 16 -38 29 -46 29 -7 0
-36 18 -66 40 -29 22 -68 44 -86 50 -18 6 -40 22 -48 36 -9 13 -23 24 -32 24
-22 0 -97 40 -111 60 -6 9 -29 22 -51 28 -22 7 -56 25 -77 42 -20 16 -53 34
-72 39 -19 6 -50 22 -70 37 -19 14 -58 35 -85 45 -28 10 -61 27 -73 39 -11 11
-47 29 -79 40 -31 10 -70 30 -86 43 -15 13 -50 30 -76 36 -26 7 -66 25 -88 41
-23 15 -66 35 -96 44 -30 8 -70 26 -89 40 -18 14 -57 30 -86 36 -29 6 -73 24
-97 39 -23 16 -68 34 -98 41 -30 7 -75 25 -100 40 -25 16 -73 34 -108 41 -35
6 -79 23 -99 36 -19 13 -74 33 -121 44 -48 11 -102 29 -121 40 -19 11 -75 29
-125 40 -49 10 -105 28 -125 40 -20 12 -83 30 -141 40 -58 11 -127 30 -155 43
-30 15 -93 31 -159 40 -64 10 -131 26 -160 40 -35 16 -87 27 -166 36 -119 13
-215 33 -236 51 -7 6 -102 19 -211 30 -112 11 -226 27 -263 39 -91 27 -99 28
-345 40 -121 6 -359 20 -530 31 -384 24 -427 24 -805 0 -273 -18 -484 -26
-532 -22 -10 0 -26 13 -35 28 -17 25 -18 75 -23 628 l-5 600 -3692 3 c-3184 2
-3693 0 -3693 -12z m6690 -661 c16 -9 32 -26 36 -39 3 -14 1 -2071 -4 -4573
-12 -5498 -9 -10720 6 -11083 14 -314 16 -489 6 -557 -6 -51 -6 -53 22 -65 23
-10 953 -14 4724 -18 3799 -4 4699 -7 4718 -18 18 -10 22 -21 22 -62 0 -48 -1
-50 -59 -94 -55 -43 -120 -113 -218 -237 -24 -30 -73 -91 -110 -137 -38 -46
-81 -101 -98 -122 -34 -44 -106 -134 -150 -189 -16 -21 -52 -66 -79 -102 -26
-35 -51 -66 -55 -69 -3 -3 -19 -23 -36 -45 -16 -22 -34 -44 -40 -50 -6 -5 -44
-54 -85 -108 -41 -54 -92 -119 -113 -145 -63 -80 -112 -143 -196 -252 -94
-122 -144 -186 -200 -255 -22 -27 -56 -72 -75 -100 -19 -27 -56 -75 -81 -105
-25 -30 -61 -78 -80 -107 -19 -28 -38 -53 -43 -55 -4 -1 -22 -23 -40 -48 -17
-25 -52 -70 -76 -100 -25 -30 -57 -73 -72 -95 -16 -22 -43 -57 -61 -78 -18
-20 -33 -41 -33 -47 0 -5 -24 -27 -53 -50 l-54 -40 -1014 -2 c-558 -1 -3412
-2 -6344 -3 -2931 -1 -5360 -5 -5396 -9 -61 -7 -69 -6 -89 14 -19 19 -21 29
-15 68 3 26 15 58 25 72 11 14 29 45 40 70 12 25 30 54 40 65 10 11 30 46 44
77 14 31 30 59 36 63 6 3 24 34 41 68 17 34 39 70 48 81 17 19 54 83 115 198
20 36 40 69 45 73 6 3 22 32 37 65 15 33 33 65 41 72 8 7 26 36 39 66 13 30
35 67 49 84 14 16 25 35 25 42 0 6 20 43 45 80 25 38 45 75 45 82 0 7 11 26
25 42 14 17 37 55 50 85 14 30 34 62 44 72 11 9 23 30 26 46 4 17 21 49 39 72
18 24 45 67 60 97 45 91 102 192 113 198 5 4 23 35 38 69 15 35 34 68 42 75 8
7 26 36 39 66 13 30 35 67 49 84 14 16 25 35 25 43 0 7 15 35 34 63 19 27 42
67 51 88 9 21 25 48 36 60 11 12 34 48 50 80 17 33 38 73 48 91 39 69 40 696
25 10312 l-7 4255 -34 45 c-74 100 -110 145 -145 187 -20 24 -45 57 -55 74 -9
16 -20 30 -23 30 -4 0 -22 21 -40 48 -19 26 -39 52 -46 57 -6 6 -21 26 -34 45
-13 19 -32 44 -42 55 -11 11 -54 67 -96 123 -89 120 -129 171 -262 337 -22 28
-58 73 -80 100 -22 28 -60 75 -85 105 -24 30 -57 73 -71 95 -15 22 -42 58 -60
80 -40 47 -95 117 -144 180 -19 25 -51 65 -71 89 -20 24 -46 60 -59 81 l-23
37 27 26 c20 20 40 28 84 33 31 3 1206 7 2610 8 2265 1 2556 -1 2582 -14z
m2205 -1324 c39 -5 165 -17 280 -26 269 -20 350 -30 455 -54 47 -11 150 -27
230 -35 80 -8 174 -24 210 -35 36 -12 121 -30 190 -40 70 -11 157 -31 195 -45
39 -14 112 -32 163 -41 52 -8 112 -25 135 -36 23 -12 84 -29 136 -40 52 -10
112 -28 135 -40 23 -12 79 -30 125 -40 46 -10 102 -29 125 -42 23 -13 73 -32
111 -41 39 -10 88 -28 110 -40 22 -13 69 -31 105 -41 36 -9 77 -26 93 -37 15
-11 57 -28 94 -38 36 -11 82 -30 102 -44 20 -13 61 -31 92 -40 31 -9 67 -25
81 -36 14 -10 55 -30 92 -44 37 -13 76 -32 87 -42 11 -9 42 -26 71 -35 28 -10
62 -26 76 -36 39 -28 44 -31 94 -48 26 -10 56 -26 67 -36 11 -10 44 -28 73
-40 29 -11 64 -31 78 -44 14 -12 42 -28 63 -35 21 -6 51 -23 66 -36 16 -13 49
-33 74 -44 24 -11 50 -27 58 -36 7 -9 43 -31 81 -50 37 -19 68 -39 68 -44 0
-6 19 -19 43 -29 23 -10 56 -29 72 -43 17 -14 48 -34 70 -46 22 -11 51 -32 64
-46 14 -14 30 -26 38 -26 7 0 30 -15 50 -34 21 -18 54 -41 73 -51 19 -10 52
-33 73 -51 20 -19 42 -34 48 -34 5 0 21 -12 35 -27 14 -15 40 -36 59 -48 19
-11 67 -47 107 -80 40 -33 87 -71 105 -83 18 -13 47 -36 65 -53 18 -16 49 -43
68 -59 19 -16 53 -45 75 -64 266 -226 657 -612 843 -831 28 -33 64 -73 81 -90
16 -16 35 -42 41 -56 7 -15 22 -32 34 -39 13 -6 31 -26 41 -43 10 -17 29 -40
42 -51 12 -12 33 -35 45 -53 42 -58 116 -152 132 -169 9 -9 23 -28 30 -42 8
-15 26 -38 40 -51 14 -14 26 -29 26 -35 0 -6 18 -34 41 -61 22 -27 50 -66 60
-87 11 -21 24 -38 29 -38 5 0 21 -22 34 -48 13 -27 32 -54 41 -62 9 -7 26 -32
37 -54 11 -23 31 -52 44 -66 12 -14 30 -41 38 -61 8 -19 22 -42 31 -49 9 -8
30 -41 47 -74 17 -34 38 -69 47 -80 19 -21 69 -108 107 -186 15 -30 37 -68 50
-85 12 -16 32 -53 44 -82 12 -29 28 -57 35 -63 7 -6 23 -36 36 -68 12 -31 30
-66 40 -77 10 -11 28 -47 40 -80 13 -33 31 -71 41 -85 10 -14 27 -52 39 -84
11 -33 29 -70 39 -83 10 -13 29 -54 41 -91 12 -37 30 -78 40 -92 9 -14 27 -57
39 -95 13 -39 31 -84 42 -102 11 -18 27 -61 37 -95 10 -35 30 -86 44 -114 14
-28 33 -79 42 -114 9 -35 25 -80 35 -100 10 -20 28 -75 40 -121 12 -46 32
-111 45 -144 13 -33 31 -96 40 -140 10 -43 26 -97 36 -120 10 -22 27 -90 38
-150 11 -61 26 -126 34 -145 8 -19 22 -80 31 -135 9 -55 28 -149 42 -210 23
-103 39 -200 63 -390 6 -44 22 -161 35 -260 48 -350 66 -655 61 -1020 -6 -431
-13 -608 -31 -727 -8 -54 -14 -129 -14 -166 0 -38 -9 -104 -21 -148 -30 -112
-36 -148 -54 -334 -9 -91 -26 -196 -37 -235 -12 -38 -25 -92 -29 -120 -32
-217 -43 -267 -64 -320 -13 -33 -28 -97 -34 -143 -6 -45 -26 -128 -45 -185
-20 -56 -43 -136 -52 -177 -9 -41 -23 -88 -31 -103 -8 -15 -23 -69 -33 -120
-11 -51 -31 -112 -44 -137 -14 -25 -30 -67 -36 -95 -7 -27 -25 -73 -41 -102
-15 -28 -35 -82 -44 -119 -8 -37 -24 -81 -34 -98 -10 -17 -26 -56 -36 -86 -10
-30 -32 -82 -50 -115 -18 -33 -39 -80 -46 -105 -7 -25 -23 -58 -36 -73 -12
-16 -30 -54 -39 -85 -9 -31 -24 -66 -35 -77 -10 -11 -28 -47 -40 -80 -13 -33
-32 -72 -44 -86 -12 -14 -29 -48 -39 -75 -10 -27 -27 -58 -36 -69 -10 -11 -30
-48 -45 -82 -15 -35 -34 -68 -42 -75 -8 -7 -26 -36 -38 -65 -13 -29 -35 -67
-48 -85 -14 -18 -30 -49 -36 -69 -7 -20 -21 -45 -33 -55 -11 -11 -31 -42 -43
-69 -13 -28 -30 -57 -40 -65 -9 -7 -27 -35 -40 -61 -13 -25 -31 -49 -38 -52
-8 -3 -27 -30 -42 -61 -14 -30 -33 -57 -40 -60 -8 -3 -25 -27 -39 -54 -14 -27
-32 -52 -40 -55 -8 -3 -27 -27 -42 -54 -16 -26 -41 -60 -56 -75 -15 -14 -28
-35 -28 -45 0 -11 -15 -33 -32 -49 -18 -17 -40 -43 -49 -59 -8 -17 -33 -42
-55 -58 l-40 -27 -485 -2 c-266 -1 -490 1 -496 5 -17 11 14 71 56 111 17 17
31 35 31 40 0 6 16 24 35 39 19 15 35 34 35 41 0 8 16 26 35 40 19 15 35 32
35 39 0 6 17 28 38 48 20 21 58 63 84 96 26 32 65 79 87 105 21 25 41 58 45
72 3 14 15 30 26 36 11 6 31 32 45 58 27 51 79 129 118 177 13 17 32 46 42 65
10 19 33 55 52 79 18 24 33 50 33 57 0 7 13 28 29 46 15 18 35 47 44 63 8 17
31 54 51 84 20 29 36 59 36 66 0 7 13 29 29 49 17 21 37 59 46 86 9 27 23 54
32 62 9 7 30 42 46 78 16 35 35 69 43 75 7 5 25 38 39 73 14 34 34 71 45 82
17 17 50 106 50 135 0 7 9 20 20 30 11 10 29 48 41 84 11 36 30 82 43 101 13
19 32 62 41 95 9 33 27 78 40 100 12 22 30 69 40 105 9 36 28 83 40 105 13 22
30 74 40 115 9 41 25 90 36 109 11 18 29 71 39 117 11 47 31 111 44 142 14 32
30 90 37 128 6 38 22 94 35 125 13 31 30 97 39 145 9 49 27 134 40 189 13 55
31 154 40 220 9 66 27 171 41 233 27 126 40 254 77 752 18 240 13 948 -7 1110
-9 69 -20 188 -26 265 -6 77 -19 190 -30 250 -11 61 -32 189 -46 285 -13 96
-35 207 -48 245 -13 39 -29 106 -36 150 -6 44 -24 121 -40 170 -17 50 -39 133
-50 185 -10 52 -42 158 -70 235 -29 77 -66 187 -84 245 -18 58 -39 119 -48
135 -8 17 -23 57 -33 90 -9 33 -27 78 -40 100 -12 22 -30 67 -40 100 -9 33
-27 80 -40 105 -13 25 -37 74 -54 110 -16 36 -37 76 -45 90 -21 35 -126 255
-126 264 0 4 -11 22 -23 39 -13 18 -34 58 -47 90 -12 31 -27 60 -32 63 -6 4
-20 28 -32 53 -12 26 -35 69 -52 97 -17 27 -55 90 -84 139 -29 50 -63 101 -75
115 -13 14 -32 43 -44 65 -35 64 -138 219 -231 345 -45 62 -103 141 -158 216
-20 28 -68 88 -107 134 -38 45 -87 103 -108 129 -63 77 -111 133 -138 160 -14
14 -72 78 -129 141 -118 132 -442 456 -497 497 -21 15 -62 52 -93 82 -30 30
-73 68 -96 85 -22 17 -96 76 -165 131 -159 129 -184 148 -244 190 -27 20 -77
55 -110 80 -58 43 -161 113 -295 200 -36 23 -78 51 -94 61 -89 59 -168 107
-221 135 -33 17 -71 39 -85 49 -21 15 -139 78 -315 168 -22 12 -121 60 -220
107 -99 48 -211 102 -250 121 -38 18 -90 39 -115 45 -25 6 -62 20 -83 30 -58
30 -394 154 -517 190 -36 11 -105 33 -155 49 -49 16 -130 39 -180 50 -49 11
-115 29 -146 40 -30 10 -98 26 -150 35 -52 9 -134 27 -184 40 -49 13 -154 33
-232 45 -78 11 -200 31 -271 45 -71 13 -224 31 -338 40 -115 9 -279 21 -364
27 -223 17 -739 18 -880 2 -63 -7 -191 -19 -283 -25 -212 -15 -202 -21 -211
134 -15 263 -18 632 -7 675 20 73 14 72 701 126 95 8 709 -2 775 -13z m-50
-1751 c94 -6 233 -19 310 -30 77 -11 208 -26 290 -35 83 -9 197 -27 255 -40
58 -14 150 -32 205 -40 55 -9 127 -24 160 -35 33 -11 110 -31 171 -44 62 -14
129 -32 150 -41 21 -9 83 -27 138 -41 54 -14 116 -34 136 -44 21 -11 68 -27
106 -36 38 -9 89 -27 114 -39 25 -12 71 -30 102 -39 31 -9 90 -32 130 -51 40
-19 79 -35 87 -35 8 0 34 -11 58 -25 24 -15 71 -37 106 -50 34 -13 143 -65
242 -116 245 -125 273 -140 329 -177 28 -18 54 -32 59 -32 5 0 36 -17 68 -37
32 -21 84 -54 115 -73 200 -123 448 -297 635 -445 21 -16 55 -43 76 -60 342
-267 760 -685 1065 -1064 21 -25 49 -59 62 -76 30 -36 70 -88 128 -169 92
-125 119 -164 177 -251 32 -49 73 -110 90 -135 39 -56 90 -138 131 -210 17
-30 53 -93 81 -140 27 -47 61 -110 75 -140 14 -30 34 -66 44 -80 11 -15 28
-51 40 -80 12 -29 29 -65 39 -79 10 -14 26 -48 36 -76 10 -27 29 -68 41 -90
12 -22 34 -71 48 -109 15 -38 31 -75 36 -82 6 -6 24 -51 40 -99 16 -48 34 -93
40 -100 10 -12 36 -85 105 -290 15 -44 40 -116 56 -160 15 -44 33 -107 40
-140 6 -33 24 -98 40 -144 16 -46 36 -120 44 -165 8 -44 26 -119 40 -166 14
-47 34 -148 45 -224 11 -77 29 -183 39 -235 24 -117 27 -154 46 -456 26 -425
28 -666 11 -965 -22 -368 -33 -497 -56 -610 -11 -52 -29 -158 -40 -235 -11
-77 -27 -165 -35 -195 -9 -30 -25 -102 -36 -160 -11 -58 -33 -145 -49 -195
-15 -49 -36 -126 -45 -170 -10 -44 -25 -96 -35 -115 -9 -19 -27 -75 -39 -124
-12 -48 -30 -105 -41 -126 -11 -21 -28 -69 -39 -107 -10 -38 -28 -88 -40 -112
-12 -23 -31 -70 -41 -104 -11 -34 -28 -76 -38 -92 -10 -17 -27 -55 -37 -85 -9
-30 -30 -77 -45 -105 -15 -27 -33 -68 -40 -90 -7 -22 -21 -52 -31 -67 -11 -14
-32 -59 -48 -98 -16 -40 -37 -80 -45 -89 -9 -9 -22 -36 -30 -58 -8 -23 -31
-65 -50 -93 -20 -29 -36 -57 -36 -64 0 -6 -18 -37 -40 -70 -22 -32 -40 -64
-40 -71 0 -7 -16 -32 -35 -55 -19 -23 -35 -47 -35 -53 0 -13 -84 -143 -123
-192 -13 -16 -34 -48 -45 -71 -11 -22 -28 -46 -36 -53 -9 -7 -30 -38 -47 -67
-17 -30 -35 -54 -39 -54 -5 0 -17 -15 -26 -32 -9 -18 -31 -50 -48 -70 -17 -20
-53 -67 -81 -104 -77 -103 -133 -170 -315 -375 -87 -99 -387 -393 -516 -508
-220 -195 -215 -191 -248 -191 -17 0 -1257 -2 -2755 -5 -2031 -5 -2731 -3
-2752 5 -15 7 -33 25 -40 41 -15 37 -7 2488 12 3544 13 744 16 1371 11 3100
-3 936 -1 1187 12 1404 l16 264 36 66 c45 84 47 85 75 71 12 -7 72 -26 133
-42 61 -17 147 -41 191 -53 44 -13 121 -35 170 -49 50 -15 186 -51 304 -82
117 -30 223 -61 235 -69 11 -7 48 -21 81 -30 33 -9 150 -61 260 -115 110 -54
218 -100 239 -104 21 -3 55 -16 75 -29 20 -13 47 -28 61 -32 59 -18 186 -78
238 -114 31 -21 75 -44 97 -51 22 -7 92 -38 155 -69 63 -32 137 -63 164 -70
28 -7 84 -30 125 -52 53 -28 87 -39 118 -39 37 0 43 -3 43 -20 0 -17 25 -33
121 -79 l122 -59 31 19 c27 17 52 19 199 19 149 0 172 2 207 20 37 19 40 24
40 60 0 40 0 40 40 40 40 0 40 0 40 38 0 20 10 56 22 80 l23 42 -23 43 c-17
33 -22 58 -22 120 0 67 -2 77 -17 77 -12 1 -34 28 -60 74 -36 62 -43 82 -43
127 0 36 7 65 20 87 17 27 25 32 60 32 l40 0 0 80 0 80 40 0 c35 0 43 5 60 33
12 20 20 50 20 80 0 40 -3 47 -20 47 -16 0 -20 7 -20 37 0 30 -8 45 -41 79
l-40 41 22 37 22 38 -21 44 c-20 41 -24 44 -62 44 -40 0 -40 0 -40 38 0 34 -8
46 -80 117 l-80 80 0 82 0 83 -40 0 -40 0 0 40 c0 30 -16 72 -60 158 -74 143
-110 190 -175 230 -28 17 -59 40 -69 51 -11 12 -24 21 -31 21 -16 0 -105 68
-147 112 -19 21 -59 49 -89 63 -69 32 -145 80 -186 115 -17 16 -46 31 -63 35
-17 4 -36 16 -43 27 -7 11 -28 28 -48 38 -19 10 -54 34 -77 53 -25 21 -58 38
-83 42 -24 4 -55 20 -76 39 -20 17 -51 40 -69 51 -18 11 -67 44 -109 73 -42
29 -104 66 -138 82 -57 27 -88 48 -189 131 -21 16 -58 39 -83 50 -25 11 -51
29 -58 40 -7 11 -27 29 -45 41 -18 11 -41 36 -51 57 -11 20 -40 56 -65 81 -40
38 -46 50 -46 85 0 34 -6 47 -36 76 -20 18 -54 70 -76 114 -37 74 -82 133
-172 227 -26 27 -36 46 -36 69 0 24 -11 44 -45 80 -25 27 -59 78 -75 114 -21
47 -47 82 -92 125 -104 99 -142 142 -157 183 -6 15 -27 35 -48 46 -45 23 -143
123 -168 171 -10 19 -23 38 -29 42 -6 4 -69 8 -141 8 -181 0 -204 5 -221 46
-8 18 -14 67 -14 109 0 62 4 79 20 95 11 11 24 20 28 20 5 0 96 12 203 26 107
14 253 29 324 33 195 12 647 12 840 1z m-6808 -1019 c15 -25 16 -713 1 -1026
-11 -240 -6 -217 -84 -333 -70 -105 -106 -159 -122 -186 -9 -15 -37 -56 -62
-91 -25 -35 -53 -76 -62 -91 -10 -16 -35 -56 -57 -89 -22 -33 -52 -82 -67
-110 -14 -27 -34 -59 -44 -70 -10 -11 -31 -42 -45 -70 -60 -109 -120 -223
-153 -290 -19 -38 -42 -81 -52 -95 -9 -14 -22 -41 -30 -60 -7 -19 -26 -55 -41
-80 -16 -25 -35 -65 -44 -89 -8 -23 -24 -55 -35 -71 -11 -16 -32 -59 -46 -97
-14 -37 -34 -81 -44 -98 -9 -16 -27 -61 -39 -99 -12 -37 -28 -78 -35 -90 -8
-11 -24 -52 -36 -90 -12 -38 -30 -86 -40 -107 -11 -20 -29 -72 -40 -114 -11
-43 -31 -103 -44 -134 -13 -31 -32 -85 -41 -119 -9 -35 -25 -86 -35 -112 -10
-27 -31 -97 -46 -157 -14 -59 -30 -116 -36 -126 -8 -15 -32 -115 -94 -392 -7
-33 -21 -112 -29 -175 -9 -63 -24 -153 -35 -200 -24 -114 -47 -308 -60 -520
-6 -96 -16 -206 -21 -245 -11 -76 -30 -605 -23 -617 3 -4 9 -94 15 -200 5
-106 14 -224 19 -263 5 -38 11 -146 15 -240 6 -175 23 -309 49 -382 8 -22 17
-79 21 -125 4 -45 22 -148 40 -228 38 -167 61 -282 70 -360 4 -30 16 -73 27
-95 11 -22 24 -71 28 -108 5 -45 19 -90 39 -130 28 -55 36 -85 57 -214 3 -18
16 -45 29 -59 16 -18 30 -55 45 -122 12 -53 29 -107 37 -120 8 -13 23 -55 33
-94 10 -38 28 -80 39 -92 17 -18 50 -127 51 -168 0 -4 13 -22 28 -40 20 -23
32 -52 40 -98 8 -48 18 -71 36 -87 14 -12 34 -48 46 -80 12 -34 31 -66 45 -76
14 -10 25 -26 25 -35 1 -23 37 -103 59 -127 10 -11 26 -42 36 -70 10 -27 28
-61 40 -75 13 -14 26 -36 30 -50 9 -29 50 -96 64 -105 6 -3 15 -24 21 -45 6
-22 23 -53 38 -70 16 -17 36 -53 46 -81 10 -27 29 -57 41 -65 13 -9 26 -30 29
-50 4 -20 22 -49 41 -69 19 -19 42 -52 50 -73 9 -22 27 -44 41 -50 14 -7 24
-20 24 -32 0 -11 22 -45 50 -75 27 -30 50 -62 50 -71 0 -9 13 -28 28 -42 31
-30 59 -131 87 -307 21 -143 14 -498 -14 -609 -17 -71 -17 -82 -4 -114 18 -44
9 -195 -14 -218 -22 -21 -30 -18 -57 25 -14 22 -34 42 -45 46 -11 3 -25 21
-31 40 -8 24 -19 37 -37 41 -16 4 -30 19 -39 40 -8 18 -27 40 -43 48 -18 10
-30 26 -34 46 -4 19 -16 34 -31 41 l-24 11 24 36 25 36 -37 37 c-20 20 -48 39
-64 42 -15 3 -41 20 -58 36 -17 17 -37 31 -46 31 -9 0 -23 11 -32 24 -8 14
-31 34 -49 45 -22 12 -35 30 -40 50 -4 21 -17 37 -36 46 -17 9 -29 24 -29 35
0 11 -19 41 -41 65 -23 25 -47 62 -54 82 -8 23 -23 43 -39 51 -15 8 -26 22
-26 33 0 28 -26 75 -51 92 -11 8 -28 37 -38 63 -11 34 -25 53 -44 62 -19 9
-27 21 -27 39 0 15 -13 38 -36 61 -19 19 -44 52 -54 73 -11 20 -31 46 -45 57
-14 11 -25 25 -25 32 0 21 -33 84 -58 112 -13 15 -28 47 -33 73 -6 32 -20 60
-44 86 -19 22 -35 47 -35 57 0 10 -13 36 -30 58 -16 21 -37 62 -46 89 -10 28
-28 64 -40 81 -13 17 -30 49 -38 72 -9 23 -27 57 -40 75 -14 18 -30 58 -36 88
-15 71 -29 109 -51 134 -10 11 -22 49 -28 83 -11 67 -21 88 -51 97 -13 4 -20
21 -25 63 -8 61 -24 101 -60 144 -16 18 -24 46 -29 93 -8 77 -18 101 -45 110
-24 7 -26 15 -45 125 -11 61 -21 88 -35 100 -20 15 -41 90 -56 208 -5 36 -13
57 -27 66 -16 11 -25 39 -40 123 -12 67 -27 119 -39 136 -14 19 -27 69 -41
159 -16 102 -26 135 -43 154 -24 26 -30 60 -45 252 -7 94 -13 121 -34 157 -28
47 -44 164 -51 384 -4 117 -11 156 -31 188 -26 42 -34 132 -64 773 -5 118 -8
298 -5 400 7 269 33 690 44 729 6 19 15 88 21 154 6 65 13 123 15 128 3 4 10
57 15 116 9 101 23 182 55 313 8 30 17 82 20 115 6 54 34 184 94 435 36 151
90 343 109 390 11 25 27 81 37 125 10 44 25 96 35 115 10 19 27 71 39 115 12
44 30 93 41 110 10 16 28 64 40 105 12 41 30 89 40 105 10 17 25 55 35 85 9
30 27 73 40 95 12 22 30 65 40 95 10 30 30 78 45 105 15 28 33 67 39 87 7 20
22 52 35 70 12 18 32 61 45 96 13 34 28 65 33 68 5 3 27 43 49 87 38 79 68
135 152 284 21 37 55 98 75 134 20 37 44 75 53 85 9 11 27 39 39 64 13 25 36
61 51 80 16 19 29 40 29 47 0 7 13 27 29 45 15 18 38 51 50 73 12 22 37 60 56
85 55 72 84 112 116 160 50 77 139 196 194 261 16 20 53 65 80 99 56 70 191
229 233 274 15 16 34 39 42 51 49 73 262 281 290 284 3 1 11 -8 17 -18z m18
-3356 c0 -223 -1 -233 -27 -310 -14 -44 -32 -107 -38 -140 -7 -33 -22 -85 -35
-115 -13 -30 -31 -97 -40 -149 -9 -51 -25 -112 -37 -134 -12 -24 -28 -92 -39
-164 -11 -70 -28 -142 -39 -166 -16 -31 -25 -82 -35 -192 -19 -201 -22 -221
-45 -264 -35 -69 -53 -531 -23 -585 9 -16 111 -86 125 -86 3 0 13 -16 20 -36
12 -34 14 -36 55 -32 42 3 43 2 49 -32 4 -19 10 -40 15 -45 4 -6 20 -44 36
-85 24 -66 28 -89 28 -186 0 -106 -1 -111 -28 -143 -15 -18 -33 -53 -39 -77
-12 -42 -28 -60 -28 -30 0 29 -52 190 -81 254 -48 104 -140 286 -150 296 -6 6
-9 3 -9 -7 0 -10 -7 -29 -17 -43 -40 -62 -49 -325 -22 -639 6 -66 18 -239 28
-386 14 -210 21 -270 35 -291 30 -46 38 -90 46 -253 7 -139 11 -169 33 -221
15 -34 33 -106 42 -160 10 -60 28 -123 45 -159 16 -33 34 -91 41 -130 6 -38
22 -90 34 -115 12 -25 32 -87 43 -137 12 -51 28 -108 36 -127 28 -67 38 -177
34 -371 -3 -149 -7 -198 -20 -227 -10 -21 -21 -38 -26 -38 -5 0 -22 28 -37 63
-16 34 -39 78 -51 97 -13 19 -33 64 -45 100 -11 36 -28 76 -36 89 -15 23 -42
98 -105 286 -16 50 -40 115 -53 145 -13 30 -33 95 -45 143 -12 49 -30 108 -40
130 -10 23 -26 80 -35 127 -9 47 -28 121 -41 165 -13 44 -35 143 -48 220 -14
77 -34 185 -45 240 -11 55 -29 179 -41 275 -12 96 -29 227 -38 290 -12 91 -16
218 -16 615 -1 481 7 666 34 790 5 22 18 123 30 225 12 102 28 214 35 250 8
36 24 115 35 175 46 238 119 515 206 775 14 41 38 116 53 165 15 50 37 108 48
130 12 22 26 60 33 85 7 24 24 69 40 100 15 30 35 80 45 110 10 30 26 67 36
82 11 14 29 48 42 75 37 80 39 82 56 43 13 -28 16 -78 16 -265z m-105 -2125
c0 -62 -14 -80 -27 -35 -8 25 -8 45 0 70 13 45 27 27 27 -35z m0 -160 c0 -49
-15 -87 -24 -60 -12 41 -13 63 -3 95 13 45 27 27 27 -35z"/>
<path d="M10405 16417 c-17 -7 -41 -23 -54 -36 l-24 -24 29 -21 c80 -58 209
-169 338 -289 59 -56 119 -109 133 -118 13 -9 52 -47 85 -85 72 -82 194 -192
226 -205 12 -4 22 -13 22 -18 0 -13 43 -56 64 -64 9 -4 16 -11 16 -17 0 -5 8
-20 18 -32 20 -26 282 -296 458 -472 67 -66 155 -161 197 -211 89 -106 540
-555 677 -675 52 -45 127 -112 166 -149 96 -90 221 -186 309 -236 28 -16 59
-36 70 -46 11 -10 43 -28 70 -40 54 -23 328 -171 412 -222 29 -18 89 -52 133
-77 45 -25 99 -59 121 -77 21 -17 56 -37 76 -44 20 -6 62 -27 92 -45 31 -19
62 -34 69 -34 7 0 27 -16 45 -35 18 -19 52 -41 77 -50 25 -9 52 -25 61 -37 9
-12 36 -29 60 -37 42 -16 44 -19 47 -59 3 -37 1 -42 -17 -42 -18 0 -21 -6 -21
-40 0 -36 3 -41 40 -60 21 -11 57 -20 80 -20 l40 0 0 -60 c0 -55 2 -61 28 -74
15 -8 33 -26 40 -40 10 -23 18 -26 58 -26 46 0 47 -1 168 -122 67 -68 139
-132 160 -143 21 -11 50 -35 64 -53 14 -18 43 -40 64 -49 47 -19 84 -61 98
-111 5 -21 16 -46 24 -57 9 -11 16 -39 16 -62 l0 -43 -83 0 -83 0 -39 40 c-32
33 -46 40 -77 40 -38 0 -38 0 -38 39 l0 39 -131 67 c-73 36 -140 77 -151 90
-10 13 -33 29 -52 35 -18 6 -42 20 -51 30 -12 13 -31 20 -57 20 l-38 0 0 -80
0 -80 40 0 c39 0 40 -1 40 -36 0 -23 16 -69 41 -120 37 -76 45 -85 93 -109 39
-20 58 -37 79 -75 15 -27 53 -75 84 -107 30 -32 62 -74 71 -93 8 -19 49 -71
92 -116 43 -45 81 -92 85 -104 8 -25 119 -140 135 -140 5 0 16 -13 25 -30 13
-26 21 -30 55 -30 39 0 40 -1 40 -35 0 -29 9 -43 58 -90 70 -68 75 -72 140
-140 45 -47 58 -55 89 -55 30 0 46 -9 93 -54 36 -34 71 -58 96 -65 22 -6 48
-17 59 -25 11 -9 39 -16 63 -16 34 0 42 -4 42 -18 0 -11 14 -25 36 -35 19 -10
57 -37 83 -62 l48 -45 157 0 156 0 0 40 c0 23 8 52 17 67 12 18 18 52 20 122
3 74 7 99 20 108 22 17 32 8 39 -37 6 -37 35 -80 53 -80 10 0 26 -37 42 -100
6 -25 26 -61 44 -81 18 -20 40 -61 50 -90 10 -30 33 -79 51 -109 19 -30 40
-76 48 -102 8 -26 26 -61 40 -78 14 -17 31 -50 37 -73 7 -23 15 -45 19 -49 3
-5 24 10 45 33 l40 40 0 292 c0 259 -2 297 -18 332 -24 54 -33 98 -51 252 -11
94 -21 141 -37 167 -12 21 -28 81 -39 151 -13 78 -27 129 -44 158 -13 23 -32
80 -41 127 -9 52 -25 98 -40 120 -14 21 -29 63 -36 105 -6 39 -24 92 -39 120
-15 28 -33 77 -40 110 -7 33 -23 78 -35 100 -13 22 -33 72 -44 111 -12 40 -28
77 -36 84 -7 6 -26 47 -40 90 -14 43 -32 83 -39 90 -8 6 -24 39 -37 73 -12 34
-30 72 -40 84 -9 12 -27 48 -39 80 -13 32 -31 67 -40 78 -10 11 -27 41 -38 67
-11 26 -32 62 -45 80 -14 18 -32 51 -41 73 -10 22 -25 49 -35 60 -11 11 -30
43 -44 71 -14 27 -33 56 -42 64 -9 7 -25 30 -35 49 -34 68 -81 136 -218 319
-42 57 -88 120 -102 141 -14 20 -34 47 -45 58 -11 11 -42 49 -70 83 -27 34
-81 99 -119 144 -102 119 -588 602 -681 676 -44 35 -117 96 -162 134 -44 39
-102 87 -128 106 -102 75 -151 111 -178 127 -16 10 -72 49 -125 87 -53 38
-108 74 -122 79 -14 6 -50 28 -80 48 -134 88 -154 100 -314 181 -32 17 -74 41
-93 54 -19 12 -51 28 -71 35 -20 6 -50 21 -67 33 -16 13 -50 30 -75 40 -25 9
-61 28 -80 40 -19 13 -60 31 -90 41 -30 10 -80 30 -110 45 -131 67 -229 110
-285 125 -33 9 -73 25 -90 35 -16 10 -68 28 -115 40 -47 12 -95 28 -108 36
-12 8 -74 28 -137 44 -63 16 -128 36 -145 45 -16 8 -76 25 -133 36 -56 12
-123 30 -149 40 -26 10 -105 26 -175 35 -70 9 -169 27 -220 40 -75 19 -154 28
-425 44 -183 12 -362 25 -398 30 -88 13 -238 11 -275 -3z m4236 -3569 c27 -8
39 -17 39 -30 0 -16 -9 -18 -80 -18 l-80 0 0 30 c0 28 2 30 41 30 23 0 59 -5
80 -12z m679 -928 l0 -40 -40 0 -40 0 0 40 0 40 40 0 40 0 0 -40z"/>
<path d="M3474 4668 c-4 -6 -9 -44 -12 -83 -6 -89 7 -103 49 -52 21 26 41 38
71 44 46 9 60 28 28 38 -11 3 -27 20 -35 36 -13 25 -21 29 -55 29 -21 0 -42
-5 -46 -12z"/>
</g>
</svg>
